<svg width="135" height="14" viewBox="0 0 135 14" fill="none" xmlns="http://www.w3.org/2000/svg">
<path d="M73.491 4.17846V5.4509H72.2976C72.2559 5.4509 72.2083 5.45685 72.159 5.4696L72.0672 5.49766L71.961 5.54016C71.836 5.59711 71.7247 5.66341 71.6312 5.73651C71.5402 5.8079 71.4654 5.88695 71.4051 5.9728C71.3464 6.05865 71.3005 6.1547 71.2682 6.2618C71.2351 6.37145 71.2164 6.49045 71.2121 6.6188C71.2181 6.646 71.2028 6.84065 71.2002 6.884L71.1977 7.12455L71.2002 7.34215C71.2053 7.44075 71.1985 7.7442 71.2325 7.8139V12.9011H69.5657L69.5674 12.664C69.5767 10.4514 69.581 8.24144 69.5844 6.0306L69.5886 3.98466H71.2325V4.03056L71.3685 3.97276C71.4875 3.92516 71.6099 3.88861 71.734 3.86396C71.859 3.83846 71.9805 3.82571 72.097 3.82571H73.4901V4.17931L73.491 4.17846ZM65.7857 8.57804H61.5111V6.9112H65.9634V8.57804H65.7866H65.7857ZM11.0264 8.85854C11.0647 8.94609 11.1012 9.04214 11.1335 9.14499C11.1658 9.24529 11.1922 9.34729 11.2134 9.44759C11.2338 9.54789 11.25 9.65159 11.2593 9.75529C11.2704 9.86494 11.2763 9.97119 11.2763 10.0715V10.2304C11.2763 10.4166 11.2585 10.6053 11.2245 10.7923C11.1905 10.9818 11.1395 11.1637 11.0749 11.3329C11.0086 11.5088 10.9261 11.678 10.8292 11.8369C10.7323 11.9959 10.6201 12.1463 10.4943 12.284C10.3694 12.4217 10.2317 12.5475 10.0838 12.658C9.93589 12.7694 9.77779 12.8654 9.61204 12.9453C9.44545 13.0244 9.2712 13.0898 9.09015 13.1366C8.91335 13.1825 8.7289 13.2131 8.54105 13.225C7.5882 13.2785 6.66171 13.3151 5.70631 13.3236C4.83252 13.3159 3.92302 13.225 3.07557 13.225C2.98802 13.2182 2.90047 13.2071 2.81548 13.1918C2.73218 13.1774 2.64633 13.1578 2.55963 13.134C2.47463 13.1094 2.39303 13.083 2.31823 13.055C2.23833 13.0252 2.15673 12.9895 2.07683 12.9513C2.00458 12.9164 1.92893 12.8756 1.85158 12.8297C1.78188 12.7898 1.70708 12.7405 1.62803 12.6852L1.41553 12.5271L1.19878 12.341C1.13503 12.2806 1.07043 12.2135 1.00668 12.1421C0.942083 12.0698 0.884284 11.9993 0.833284 11.9296C0.780584 11.859 0.731284 11.7834 0.683685 11.7052C0.636935 11.6278 0.595285 11.5496 0.559585 11.4731C0.522185 11.3949 0.488185 11.3116 0.459286 11.2266C0.429536 11.1391 0.404886 11.0541 0.386186 10.9725C0.366636 10.8841 0.352186 10.7965 0.341136 10.7115C0.330936 10.6197 0.325836 10.5313 0.325836 10.4489V9.62779H2.49673L2.59533 10.1905C2.60468 10.2474 2.62083 10.3052 2.64123 10.363C2.65993 10.4183 2.68458 10.4718 2.71263 10.5228C2.74068 10.573 2.77213 10.6197 2.80443 10.6622C2.83842 10.7047 2.87582 10.7447 2.91407 10.7787C2.95232 10.8118 2.99397 10.8424 3.03647 10.8679C3.07642 10.8926 3.12147 10.9147 3.16907 10.9325C3.21837 10.9512 3.26597 10.9648 3.31102 10.9733C3.35437 10.981 3.40537 10.9852 3.46317 10.9852L5.68506 11.0073H6.25966C6.88781 10.9903 7.5083 10.9886 8.1373 10.9869C8.20275 10.9852 8.26395 10.9801 8.32005 10.9699C8.3753 10.9606 8.42715 10.9461 8.4739 10.9274C8.5198 10.9087 8.56485 10.8858 8.6048 10.8594C8.64475 10.8322 8.6813 10.8025 8.7136 10.7693C8.74845 10.7328 8.7799 10.6937 8.8037 10.6546C8.83005 10.6095 8.8547 10.5619 8.87255 10.5118C8.89295 10.4591 8.90825 10.4021 8.91845 10.3435C8.92865 10.2831 8.93375 10.2177 8.93375 10.1488C8.93375 10.0689 8.9278 9.99413 8.9159 9.92698C8.904 9.85643 8.88615 9.79014 8.86405 9.73149C8.84195 9.67369 8.8156 9.62099 8.7867 9.57509C8.75695 9.52919 8.72125 9.48499 8.6813 9.44504C8.6439 9.40509 8.60055 9.37109 8.55295 9.34049C8.50705 9.31074 8.4535 9.28439 8.3957 9.26229C8.33535 9.23934 8.2699 9.22149 8.20275 9.21044C8.13305 9.19854 8.05825 9.19259 7.97835 9.19259H7.92565L7.8755 9.17559C7.85935 9.17049 7.3655 9.16199 6.71781 9.15349C5.57456 9.13734 3.83717 9.13139 3.51587 9.13139L3.20732 9.11439L2.92427 9.08209C2.82908 9.06849 2.73813 9.05234 2.65058 9.03449C2.55793 9.01494 2.46698 8.99284 2.38283 8.96904C2.29698 8.94439 2.20858 8.91464 2.11593 8.88064C2.02753 8.84749 1.94253 8.81179 1.86603 8.77524C1.77848 8.73274 1.69943 8.69024 1.62803 8.64859C1.55493 8.60609 1.48098 8.55679 1.40618 8.50239L1.38153 8.48369C1.30418 8.42419 1.22938 8.36044 1.15968 8.29584C1.08828 8.22869 1.01943 8.15559 0.953133 8.07654C0.887684 7.99749 0.828184 7.91674 0.774634 7.83429C0.721084 7.751 0.671785 7.66429 0.627585 7.57335C0.585085 7.48665 0.545985 7.39315 0.511985 7.29455C0.478836 7.19935 0.451636 7.10075 0.430386 6.99875C0.409136 6.9044 0.393836 6.80155 0.381936 6.69275C0.370886 6.58395 0.364936 6.47685 0.364936 6.37485V6.3349C0.364936 6.1445 0.381086 5.95835 0.410836 5.7773C0.442286 5.59285 0.488185 5.4186 0.547685 5.25626C0.609735 5.08711 0.689635 4.92646 0.781434 4.77686C0.874934 4.62726 0.983733 4.48786 1.10698 4.36036C1.22768 4.23541 1.36368 4.12066 1.51158 4.02036C1.65778 3.92176 1.81673 3.83506 1.98333 3.76451C2.14738 3.69566 2.31993 3.63956 2.50013 3.59876C2.67693 3.55881 2.86223 3.53161 3.05262 3.51971L3.64677 3.48147L4.25112 3.45682L4.85972 3.44236L5.43941 3.43642C6.40076 3.44492 7.3417 3.45682 8.3005 3.51887C8.4841 3.53162 8.66005 3.56221 8.8275 3.60726C9.00005 3.65401 9.16835 3.71776 9.329 3.79596C9.4888 3.87331 9.64349 3.96766 9.79054 4.07646C9.93674 4.18441 10.0736 4.30681 10.1985 4.43771C10.3243 4.56946 10.4382 4.71396 10.5402 4.86611C10.6397 5.01486 10.7272 5.17806 10.8012 5.34806C10.8734 5.51211 10.9321 5.68635 10.9737 5.86485C11.0162 6.0357 11.0417 6.21505 11.0511 6.3995L11.0902 7.1152H9.11055L9.2831 7.1815C9.37235 7.21805 9.4633 7.26225 9.55509 7.31155C9.64775 7.3617 9.73529 7.41525 9.81689 7.4688C9.89934 7.5232 9.98264 7.58439 10.0642 7.64984C10.1441 7.71444 10.2206 7.7816 10.2946 7.8513L10.298 7.85469C10.3711 7.92184 10.4442 7.99749 10.5164 8.07739C10.5836 8.15049 10.6507 8.23294 10.7145 8.32134C10.7782 8.40889 10.8352 8.49559 10.8862 8.58399C10.938 8.67494 10.9848 8.76589 11.0247 8.85684L11.0264 8.85854ZM10.5122 9.34219C10.4901 9.27249 10.4612 9.19939 10.428 9.12204C10.3957 9.04979 10.36 8.97924 10.3226 8.91379C10.281 8.84154 10.2359 8.77269 10.1883 8.70639C10.1441 8.64604 10.0931 8.58144 10.0336 8.51684C9.98094 8.45649 9.92059 8.39614 9.85429 8.33494L9.85004 8.33154C9.78544 8.26949 9.71999 8.21254 9.65709 8.16154C9.59419 8.11054 9.52789 8.06209 9.45905 8.01619C9.3868 7.96859 9.3171 7.92609 9.24995 7.89039C9.18195 7.85469 9.1097 7.81984 9.03405 7.78839C8.95755 7.75609 8.8819 7.72804 8.8088 7.70594C8.7357 7.68384 8.6575 7.66345 8.57675 7.64645C8.4994 7.6303 8.4178 7.61754 8.3311 7.60734C8.24355 7.59799 8.15855 7.59119 8.0778 7.58864L3.62722 7.5283C3.49292 7.5266 3.37052 7.51809 3.26342 7.5062C3.14782 7.49259 3.03732 7.4722 2.93532 7.4467C2.83757 7.4212 2.74748 7.38975 2.66503 7.35405C2.57748 7.31665 2.49843 7.2699 2.42873 7.2189C2.36328 7.17045 2.30548 7.11265 2.25448 7.0489C2.20518 6.9877 2.16353 6.9197 2.13123 6.84575C2.06578 6.69955 2.03433 6.52955 2.03433 6.3366C2.03433 6.24565 2.04113 6.1547 2.05558 6.06545C2.07003 5.97365 2.09213 5.8895 2.12018 5.81386C2.14993 5.73821 2.18648 5.6685 2.22898 5.60475C2.27573 5.53675 2.32843 5.47811 2.38538 5.42711C2.44828 5.37441 2.51968 5.32681 2.59873 5.28601C2.67268 5.24776 2.75428 5.21546 2.84098 5.18996C2.93362 5.16361 3.03307 5.14236 3.13847 5.12876C3.23877 5.11516 3.34842 5.10666 3.46657 5.10496C4.63277 5.08796 5.79046 5.08796 6.95751 5.08796L7.50575 5.09391C7.6409 5.09731 7.7871 5.09646 7.92055 5.10496C8.0115 5.10751 8.09905 5.11771 8.18065 5.13471C8.27245 5.15256 8.35745 5.17891 8.43565 5.20951C8.5181 5.24351 8.598 5.28431 8.67535 5.33191C8.751 5.37866 8.8258 5.43306 8.89295 5.49256C8.96095 5.55121 9.02555 5.6192 9.0842 5.69315C9.14285 5.7654 9.19555 5.8436 9.2406 5.92095C9.28565 6.0034 9.3256 6.08925 9.3579 6.1751C9.3885 6.2584 9.414 6.3485 9.431 6.442L9.43525 6.46325H10.4025L10.4017 6.4369C10.394 6.2992 10.3736 6.15895 10.3405 6.01955C10.3082 5.881 10.2623 5.74415 10.2053 5.61325C10.1484 5.4815 10.0787 5.35401 9.99794 5.23076C9.91804 5.11006 9.82794 4.99616 9.72764 4.89161C9.62735 4.78621 9.51855 4.68931 9.40465 4.60431C9.29415 4.52271 9.17345 4.44876 9.0468 4.38756C8.92525 4.32806 8.79605 4.27876 8.66175 4.24306C8.53085 4.20821 8.39655 4.18441 8.26055 4.17421C7.5695 4.12916 6.89801 4.11131 6.20526 4.09856L5.44281 4.09346L4.87077 4.09771L4.27322 4.11216L3.68247 4.13766L3.10022 4.17506C2.94127 4.18526 2.78913 4.20736 2.64548 4.23966C2.50098 4.27281 2.36413 4.31616 2.23748 4.36971C2.10828 4.42411 1.98843 4.48956 1.87793 4.56436C1.77083 4.63746 1.66968 4.72246 1.57873 4.81681C1.48948 4.90946 1.40788 5.01316 1.33903 5.12621C1.26933 5.23671 1.21068 5.35741 1.16393 5.48575C1.11718 5.6141 1.07978 5.74925 1.05683 5.88865C1.03388 6.02805 1.02113 6.17935 1.02113 6.33915V6.3791C1.02113 6.4709 1.02538 6.55505 1.03218 6.62985C1.03983 6.7055 1.05258 6.78455 1.07043 6.86445C1.08573 6.9401 1.10698 7.01405 1.13163 7.08545C1.15458 7.15345 1.18263 7.2223 1.21578 7.2903C1.24723 7.35575 1.28378 7.42035 1.32458 7.48325C1.36453 7.54615 1.40788 7.60565 1.45463 7.66089C1.49968 7.71359 1.55068 7.76714 1.60848 7.82239C1.66373 7.87424 1.72408 7.92609 1.78953 7.97539C1.84478 8.01704 1.90173 8.05189 1.96123 8.09014C2.02498 8.12839 2.08788 8.16239 2.14653 8.19044L2.34458 8.27374L2.55963 8.34429L2.78233 8.39954L3.01267 8.44034L3.26002 8.46754L3.51502 8.48284C3.79977 8.48199 5.44536 8.48879 6.72461 8.50664C7.29325 8.51429 7.76925 8.52704 7.9775 8.54489C8.09055 8.54319 8.20275 8.55254 8.3107 8.57124C8.42205 8.59079 8.5283 8.61969 8.62605 8.65624C8.72295 8.69279 8.81645 8.74039 8.904 8.79649C8.99155 8.85089 9.0706 8.91634 9.1437 8.98859C9.2151 9.05914 9.2797 9.13989 9.33665 9.22829C9.3919 9.31669 9.4395 9.41019 9.47605 9.50709C9.5126 9.60654 9.5415 9.71194 9.56104 9.82073C9.57975 9.92953 9.58994 10.0417 9.58994 10.1556C9.58994 10.2593 9.5806 10.3613 9.56359 10.4591C9.54574 10.5611 9.51855 10.6588 9.48455 10.7489C9.45055 10.8399 9.4072 10.9266 9.3579 11.0056C9.30435 11.0889 9.24485 11.1654 9.18195 11.2309C9.11565 11.298 9.0434 11.3584 8.9652 11.4102C8.887 11.4604 8.80285 11.5054 8.7136 11.5411C8.6269 11.5751 8.53255 11.6023 8.43395 11.6202C8.33875 11.638 8.23845 11.6474 8.1373 11.6474L7.15726 11.6491C6.66341 11.6559 6.17636 11.6669 5.68166 11.6669L3.46317 11.6457C3.37647 11.6474 3.28637 11.638 3.19627 11.6219C3.10192 11.6049 3.01522 11.5811 2.93787 11.5513C2.85627 11.5199 2.77553 11.4808 2.69988 11.4349C2.62083 11.3881 2.54858 11.3354 2.48228 11.2768C2.41343 11.2156 2.34883 11.1476 2.29103 11.0745C2.23493 11.0031 2.18308 10.9249 2.13888 10.8433C2.09553 10.7642 2.05643 10.6784 2.02413 10.5866C1.99438 10.5016 1.96973 10.4089 1.95188 10.3103L1.94678 10.2891H0.981183V10.4548C0.981183 10.5211 0.984583 10.5849 0.991383 10.6435C0.999033 10.709 1.01008 10.7727 1.02368 10.8348C1.03813 10.8994 1.05598 10.9614 1.07553 11.0175C1.09678 11.077 1.12228 11.1382 1.15118 11.1994C1.18008 11.2606 1.21153 11.3201 1.24468 11.3754C1.27698 11.4306 1.31693 11.4884 1.36028 11.5479C1.40363 11.6066 1.44953 11.6627 1.49543 11.7137L1.64758 11.8701L1.82608 12.0239L2.00203 12.1565L2.18308 12.273L2.36158 12.369L2.54943 12.4498L2.73473 12.511L2.92852 12.5543L3.12402 12.579L3.80487 12.6198L4.45002 12.6521L5.05862 12.6716H6.35571L7.05781 12.6521L7.77265 12.6206L8.49855 12.579C8.64645 12.5696 8.78925 12.5458 8.92525 12.511C9.06635 12.4744 9.2015 12.4243 9.32645 12.3639C9.45735 12.301 9.57975 12.2262 9.69109 12.1421C9.80754 12.0554 9.91464 11.9568 10.0098 11.8514C10.1067 11.7443 10.1943 11.627 10.2699 11.5029C10.3456 11.3788 10.4102 11.247 10.462 11.1093C10.5147 10.9708 10.5555 10.8271 10.581 10.6835C10.6065 10.5441 10.6193 10.3936 10.6193 10.2372V10.0783C10.6193 9.98818 10.6159 9.90489 10.6082 9.82924C10.6006 9.74679 10.5878 9.66519 10.5717 9.58529C10.5547 9.50284 10.5334 9.42294 10.5113 9.34984L10.5122 9.34219ZM8.88105 7.04635L8.7884 6.56355C8.77905 6.50915 8.7629 6.4539 8.7425 6.3978C8.72295 6.34255 8.69915 6.2907 8.6728 6.24395C8.64305 6.1921 8.60905 6.14365 8.5742 6.10115C8.5419 6.06035 8.5028 6.01955 8.46115 5.983C8.4212 5.9473 8.377 5.91415 8.33195 5.8861C8.2903 5.8606 8.24355 5.8368 8.1951 5.81725C8.1458 5.79855 8.09565 5.78326 8.0506 5.77391C8.00385 5.76455 7.95625 5.7586 7.91035 5.7569C7.8925 5.76285 7.5457 5.74755 7.4947 5.74585L6.95666 5.7399L4.65147 5.73905L3.47592 5.75605C3.38752 5.75775 3.30337 5.76455 3.22517 5.77475C3.15122 5.7841 3.08407 5.79855 3.02457 5.81555C2.97442 5.83085 2.93107 5.84785 2.89452 5.86655C2.86392 5.88185 2.83672 5.90055 2.81378 5.9201L2.76873 5.97195C2.75513 5.9915 2.74153 6.017 2.73133 6.0442C2.71773 6.0816 2.70583 6.12325 2.69988 6.16745C2.69223 6.2125 2.68883 6.2703 2.68883 6.3366C2.68883 6.43945 2.70243 6.52105 2.72963 6.58225C2.73898 6.60435 2.75088 6.6239 2.76533 6.6426C2.77723 6.6596 2.79763 6.67745 2.82057 6.6953C2.84947 6.71655 2.88602 6.7378 2.92852 6.7565C2.97527 6.7786 3.03052 6.7973 3.09172 6.8126C3.16652 6.83045 3.24897 6.84575 3.33907 6.85595C3.43767 6.867 3.53712 6.87465 3.63487 6.87635L8.09565 6.9367C8.2053 6.93925 8.309 6.9469 8.4059 6.95795C8.50535 6.96985 8.6065 6.986 8.70765 7.0064L8.88275 7.04805L8.88105 7.04635ZM31.2674 7.292C31.3022 9.26994 31.2665 11.2513 31.2572 13.2292H28.9614V6.75905C28.9614 6.69785 28.9554 6.63835 28.9444 6.5831C28.9342 6.52275 28.9163 6.4675 28.8959 6.4165C28.8713 6.3587 28.8432 6.30515 28.8118 6.25755C28.7778 6.2074 28.7395 6.16065 28.6996 6.119C28.6596 6.0782 28.6137 6.03995 28.5644 6.0068C28.516 5.97365 28.465 5.9456 28.4148 5.92435C28.3638 5.90395 28.3111 5.88695 28.255 5.8759C28.2032 5.86485 28.1462 5.8589 28.085 5.8589L25.6243 5.83595L25.2018 5.8368L24.2872 5.8606L24.1708 5.8725C24.1087 5.881 24.0501 5.89375 23.9965 5.90905C23.9387 5.9269 23.8852 5.94815 23.8384 5.9711C23.7866 5.99745 23.7407 6.0272 23.7016 6.0561C23.6574 6.0918 23.6183 6.12665 23.5868 6.1615C23.5545 6.19805 23.5239 6.2397 23.4967 6.28475C23.4721 6.3264 23.4491 6.374 23.4296 6.4267C23.4109 6.47855 23.3956 6.5321 23.3871 6.58565C23.3777 6.6392 23.3726 6.69785 23.3726 6.7599V13.2301H20.951V6.7599C20.951 6.6953 20.945 6.6341 20.9348 6.57885C20.9238 6.5219 20.9059 6.4641 20.8838 6.40885C20.8626 6.3536 20.8354 6.3009 20.8031 6.25075C20.7699 6.19975 20.7334 6.15385 20.6943 6.11305C20.656 6.0731 20.611 6.03655 20.5651 6.00425C20.5217 5.9728 20.4716 5.9456 20.4172 5.92265C20.3687 5.90225 20.3169 5.8861 20.2633 5.87505C20.2123 5.864 20.1562 5.8589 20.0959 5.8589L17.6173 5.83935L17.1932 5.8402L16.3168 5.864L16.1876 5.8776C16.1273 5.88355 16.0678 5.8946 16.0117 5.9099C15.9505 5.92775 15.8969 5.9473 15.851 5.96855C15.8009 5.9932 15.7524 6.02125 15.7116 6.051C15.6674 6.08245 15.6283 6.11645 15.5935 6.153C15.5603 6.187 15.5297 6.22525 15.5042 6.26605C15.4804 6.30175 15.4583 6.3451 15.4396 6.3927C15.4209 6.43775 15.4073 6.48365 15.3988 6.53125C15.3903 6.57545 15.3861 6.6273 15.3861 6.6834V13.2309H13.0639V3.65826H15.3861V3.67441L15.6496 3.62171C15.715 3.61236 15.7847 3.60472 15.8578 3.60132C17.228 3.51122 18.9068 3.41601 20.2293 3.54946C20.3636 3.56731 20.4903 3.58941 20.6093 3.61321C20.7436 3.64126 20.8685 3.67186 20.9816 3.70586C21.098 3.74156 21.2153 3.78236 21.3326 3.82996C21.4474 3.87501 21.5596 3.92856 21.6701 3.98721C21.7704 4.04076 21.8613 4.09431 21.9404 4.14701C22.0228 4.20396 22.1002 4.26006 22.1699 4.31616L22.2506 4.24986L22.4461 4.10876C22.5277 4.05521 22.6136 4.00421 22.7011 3.95746C22.7853 3.91326 22.8762 3.87076 22.9706 3.83166C23.0615 3.79426 23.1559 3.76026 23.2519 3.73051C23.3531 3.69906 23.4508 3.67356 23.5443 3.65316L23.722 3.62001L23.9183 3.59027C25.3693 3.44492 27.0506 3.49846 28.5007 3.59876C28.5848 3.60471 28.6707 3.61661 28.7565 3.63106C28.8441 3.64551 28.9291 3.66421 29.0124 3.68716C29.0999 3.71181 29.1832 3.73816 29.2631 3.76791C29.3464 3.79851 29.4263 3.83336 29.5028 3.87076C29.5785 3.90731 29.655 3.94981 29.7349 3.99741C29.8037 4.03821 29.8751 4.08666 29.9525 4.14276C30.0239 4.19376 30.0961 4.24986 30.165 4.30936C30.233 4.36716 30.3018 4.43091 30.3673 4.49636C30.4242 4.55246 30.4863 4.61876 30.5492 4.69186L30.7132 4.89671C30.7625 4.96471 30.8127 5.03781 30.8603 5.11686C30.9036 5.18656 30.9452 5.26221 30.9844 5.34211C31.0243 5.42031 31.06 5.50276 31.0906 5.58691C31.1203 5.6685 31.1475 5.75265 31.1688 5.83935C31.1892 5.92095 31.2062 6.00935 31.2206 6.1054C31.2317 6.1921 31.241 6.28305 31.2428 6.37655L31.2708 7.292H31.2674ZM30.624 7.84449L30.6146 7.3056L30.5874 6.3961C30.5849 6.3281 30.5781 6.26095 30.5696 6.19465C30.5611 6.1326 30.5475 6.068 30.5305 6C30.516 5.93625 30.4956 5.87335 30.4727 5.81215C30.4506 5.7518 30.4251 5.69145 30.3953 5.63281C30.369 5.57586 30.3358 5.51721 30.3001 5.45686C30.267 5.40246 30.2279 5.34381 30.1845 5.28431L30.0528 5.11941L29.9023 4.95876C29.8496 4.90521 29.7944 4.85336 29.7383 4.80576C29.6116 4.70631 29.5258 4.64426 29.3923 4.55586C29.3379 4.52186 29.2776 4.48871 29.2147 4.45811C29.1535 4.42921 29.0923 4.40201 29.0328 4.37991L28.8441 4.31871L28.646 4.27621L28.448 4.25241C27.7722 4.20396 27.1143 4.18866 26.436 4.17676C25.6753 4.17251 24.9468 4.16571 24.1878 4.22011L23.8299 4.26516L23.6837 4.29406L23.4423 4.35696C23.365 4.38076 23.2893 4.40796 23.2171 4.43771C23.1474 4.46661 23.0751 4.50061 23.0046 4.53716C22.9366 4.57371 22.8694 4.61281 22.8057 4.65531L22.6535 4.76411L22.5082 4.88991L22.1699 5.22481C22.0373 5.09051 21.9132 4.96131 21.7712 4.83891C21.7049 4.78366 21.6395 4.73521 21.5757 4.69271C21.5001 4.64341 21.4278 4.60006 21.3615 4.56436C21.2757 4.51931 21.1847 4.47596 21.0887 4.43771C20.9977 4.39946 20.8983 4.36461 20.7946 4.33401C20.6858 4.30171 20.5812 4.27536 20.4784 4.25411C20.3636 4.23031 20.248 4.21076 20.1333 4.19631C19.897 4.17421 19.6514 4.18016 19.4142 4.17676L17.5867 4.17251L16.8702 4.19461C16.4953 4.21586 16.1171 4.23286 15.7431 4.26856L15.5901 4.29746L15.4362 4.34166C15.3912 4.35526 15.341 4.37481 15.2858 4.39776L14.7316 4.64851V4.31276H13.7209V12.5747H14.7316V6.68255C14.7316 6.5916 14.7409 6.50065 14.7579 6.41055C14.7758 6.3196 14.8004 6.2329 14.8327 6.15215C14.8633 6.07225 14.905 5.9915 14.9551 5.9133C15.0027 5.8368 15.0597 5.76625 15.1209 5.70165C15.1846 5.63535 15.256 5.57331 15.3325 5.51891C15.409 5.46451 15.4906 5.41691 15.5739 5.37781C15.6632 5.33616 15.7533 5.30216 15.8408 5.27836C15.9335 5.25456 16.0295 5.23671 16.1256 5.22651L16.1536 5.21461C16.6449 5.19931 17.1294 5.18656 17.6207 5.18571L20.0984 5.20441C20.1945 5.20271 20.2931 5.21376 20.3917 5.23331C20.4903 5.25201 20.5863 5.28176 20.6764 5.32086C20.7648 5.35826 20.8524 5.40756 20.9365 5.46536C21.019 5.52061 21.0972 5.5852 21.166 5.65745C21.2374 5.73055 21.3012 5.81131 21.3564 5.8963C21.41 5.97875 21.4567 6.06885 21.495 6.1632C21.5324 6.25415 21.5621 6.35275 21.5817 6.45475C21.6012 6.55505 21.6106 6.65705 21.6106 6.75905V12.5739H22.7215V6.75905C22.7215 6.663 22.73 6.5678 22.7462 6.47515C22.7632 6.3791 22.7878 6.28645 22.8193 6.2006C22.8507 6.1156 22.8924 6.02975 22.9408 5.949C22.9884 5.86995 23.0437 5.79516 23.1049 5.72631C23.1695 5.65491 23.2383 5.5903 23.3106 5.5359C23.3879 5.47895 23.4678 5.42796 23.5486 5.38716C23.6361 5.34466 23.7245 5.30811 23.8138 5.28176C23.9056 5.25456 24.0008 5.23416 24.096 5.22226L24.1223 5.21121C24.6272 5.19591 25.127 5.18316 25.6302 5.18231L28.0893 5.20356C28.1879 5.20186 28.2882 5.21291 28.3876 5.23246C28.4854 5.25116 28.5814 5.28176 28.6741 5.32086C28.7684 5.36166 28.8577 5.40926 28.9384 5.46536C29.02 5.52146 29.0982 5.58691 29.1705 5.65915C29.2419 5.7314 29.3065 5.81045 29.3609 5.89545C29.4187 5.983 29.4663 6.0731 29.5037 6.16405C29.5411 6.25755 29.5717 6.3553 29.5904 6.45475C29.6108 6.55335 29.621 6.65535 29.621 6.7582V12.573H30.6112L30.6325 8.41994L30.6282 7.84364L30.624 7.84449ZM44.1618 5.34636C44.1992 5.42286 44.2324 5.507 44.2638 5.59625C44.2927 5.6787 44.3165 5.76625 44.3378 5.8572C44.3573 5.94305 44.3718 6.0323 44.382 6.1258C44.3913 6.2193 44.3973 6.3094 44.3973 6.39525C44.3973 7.11945 44.4058 7.71529 44.4134 8.31454C44.4321 9.70514 44.4508 11.1144 44.3854 12.4583C44.3709 12.698 44.3276 12.9657 44.3004 13.2088H42.0751V13.1646L41.22 13.2564L40.3513 13.3372L40.3343 13.1298C39.8311 13.1799 39.3271 13.2335 38.8222 13.2692H36.6258C36.5153 13.2692 36.4022 13.2641 36.2909 13.2556C36.1829 13.2462 36.0733 13.2326 35.9636 13.2139C35.8548 13.1961 35.7477 13.1714 35.6457 13.1442C35.5446 13.117 35.4426 13.0839 35.3389 13.0448C35.2403 13.0074 35.1417 12.9649 35.0456 12.9181C34.9513 12.8722 34.8569 12.8195 34.7634 12.7617C34.6776 12.709 34.5883 12.647 34.4982 12.5781C34.4107 12.5127 34.3274 12.443 34.2483 12.3699C34.165 12.2925 34.0877 12.2143 34.018 12.1353C33.944 12.0511 33.876 11.9661 33.8148 11.8811C33.7528 11.7936 33.6941 11.7035 33.6423 11.6117C33.587 11.5148 33.5386 11.4187 33.4995 11.3269C33.4578 11.2275 33.4204 11.1263 33.3898 11.026C33.3584 10.9215 33.3312 10.8161 33.3116 10.7098C33.27 10.4965 33.2487 10.2755 33.2487 10.0511C33.2487 9.95333 33.2538 9.84878 33.264 9.73743C33.2734 9.62864 33.2895 9.52579 33.3074 9.42974C33.3269 9.32774 33.3516 9.22744 33.3805 9.13139C33.4094 9.03364 33.4451 8.93589 33.4842 8.84154C33.5267 8.74294 33.5709 8.64944 33.6185 8.56274C33.6695 8.47009 33.7239 8.38169 33.7808 8.29924C33.8386 8.21509 33.9032 8.13094 33.9729 8.04849C34.0409 7.96689 34.1123 7.88784 34.1888 7.81219C34.2645 7.73654 34.3427 7.6643 34.426 7.59545C34.5008 7.53085 34.5866 7.4671 34.6776 7.4059C34.7617 7.34725 34.8518 7.292 34.9453 7.24185L35.032 7.1968H33.4697L33.6142 6.32215C33.6185 6.2414 33.627 6.16235 33.638 6.0867C33.6491 6.0051 33.6652 5.92265 33.6848 5.84105C33.706 5.75605 33.7298 5.67275 33.7596 5.592C33.7885 5.50871 33.8225 5.42795 33.8573 5.3523C33.8956 5.27071 33.9364 5.19336 33.9772 5.12281C34.0265 5.04206 34.0741 4.96726 34.1225 4.90096C34.1744 4.82956 34.2296 4.76071 34.2866 4.69441C34.3435 4.62726 34.4056 4.56011 34.4702 4.49636C34.5348 4.43176 34.6002 4.36971 34.6691 4.31191C34.7337 4.25581 34.8051 4.19971 34.8816 4.14446C34.9538 4.09091 35.0286 4.04076 35.1017 3.99571C35.1748 3.95151 35.2522 3.90986 35.3338 3.87076C35.4145 3.83166 35.4961 3.79596 35.5735 3.76706C35.6576 3.73646 35.7401 3.70926 35.8225 3.68716C35.9016 3.66506 35.9874 3.64551 36.0784 3.63021C36.1642 3.61576 36.2509 3.60471 36.3385 3.59876C37.1808 3.53586 38.0036 3.52311 38.8485 3.51801C39.7793 3.52311 40.6879 3.53331 41.6161 3.59791C41.6994 3.60386 41.7853 3.61576 41.872 3.63021C41.957 3.64381 42.0428 3.66336 42.1278 3.68546C42.2111 3.70671 42.2944 3.73391 42.3785 3.76366C42.4644 3.79426 42.546 3.82911 42.6259 3.86651C42.6981 3.90051 42.7763 3.94216 42.8605 3.99231C42.9344 4.03566 43.0109 4.08496 43.0866 4.13766C43.1631 4.19121 43.237 4.24646 43.3042 4.30171C43.3773 4.36121 43.4461 4.42241 43.5099 4.48276C43.5796 4.54736 43.6459 4.61366 43.7062 4.67996C43.7666 4.74541 43.8252 4.81511 43.8805 4.88651C43.9357 4.95791 43.9876 5.03356 44.0369 5.11176C44.0836 5.18571 44.127 5.26391 44.1661 5.34636H44.1618ZM43.6459 5.8096C43.6263 5.75265 43.6008 5.69145 43.5711 5.62855C43.5456 5.57245 43.5133 5.51466 43.4767 5.45686C43.4427 5.39991 43.4028 5.34211 43.3577 5.28431C43.3178 5.23246 43.2719 5.17806 43.2209 5.12281C43.1044 5.00551 43.0084 4.91541 42.8851 4.80576L42.7092 4.67231L42.5256 4.55501L42.3445 4.46066L42.1507 4.37906L41.9578 4.31786C41.8941 4.30086 41.8278 4.28641 41.7606 4.27536L41.5617 4.25071C40.8885 4.20226 40.2332 4.18696 39.5583 4.17506H38.1328L37.5293 4.18866L36.9437 4.21331L36.3827 4.25156C36.3147 4.25666 36.2484 4.26431 36.1846 4.27536C36.1226 4.28556 36.0571 4.30086 35.99 4.31871C35.9228 4.33571 35.8599 4.35611 35.8013 4.37821L35.6168 4.45811L35.4375 4.55586C35.3771 4.59241 35.3185 4.63066 35.2649 4.67061C35.208 4.71141 35.1493 4.75731 35.0907 4.80746L34.9309 4.95621L34.7804 5.11856L34.6504 5.28346L34.5382 5.45345L34.4455 5.62855L34.3733 5.80705L34.318 5.99405C34.3036 6.05185 34.2917 6.11305 34.2832 6.17595C34.2704 6.31195 34.2611 6.4063 34.239 6.5389H35.2105L35.2148 6.51765C35.2326 6.42585 35.2581 6.3349 35.2904 6.2499C35.3236 6.16235 35.3635 6.0782 35.4094 5.99915C35.457 5.91755 35.5106 5.83935 35.5684 5.76881C35.6279 5.69656 35.6933 5.6277 35.7639 5.56565C35.831 5.50531 35.905 5.45006 35.9823 5.40161C36.0588 5.35401 36.1404 5.31321 36.2246 5.28006C36.3053 5.24861 36.3886 5.22311 36.4711 5.20781C36.5561 5.19166 36.6428 5.18231 36.7278 5.18231H41.2226C41.3203 5.18231 41.4198 5.19251 41.5158 5.21291C41.6153 5.23331 41.7113 5.26391 41.7963 5.30046C41.8873 5.34041 41.9748 5.3897 42.0573 5.4475C42.1388 5.5036 42.2154 5.56906 42.2868 5.643C42.3573 5.7161 42.4219 5.7977 42.478 5.88355C42.5324 5.9694 42.58 6.06035 42.6182 6.1547C42.6548 6.24735 42.6845 6.34595 42.7041 6.44795C42.7245 6.5491 42.7338 6.65195 42.7338 6.75395V7.50364L41.005 7.4892L38.7652 7.48494L37.5021 7.48835L36.9454 7.4943L36.4464 7.5062C36.3648 7.50874 36.2781 7.51469 36.1889 7.52489C36.1047 7.53425 36.0223 7.54784 35.9441 7.56484C35.8616 7.58184 35.7809 7.60224 35.7044 7.62604C35.6313 7.64899 35.5565 7.6762 35.4825 7.70765C35.4052 7.7408 35.3295 7.77649 35.2564 7.81559C35.1876 7.85214 35.1162 7.89634 35.0456 7.94479C34.9819 7.98729 34.9147 8.03829 34.845 8.09694C34.7796 8.14964 34.715 8.20914 34.6521 8.27289C34.5875 8.33749 34.528 8.40124 34.4753 8.46584C34.4192 8.53129 34.3682 8.59929 34.3206 8.66814C34.273 8.73954 34.2288 8.80924 34.1931 8.87724C34.1523 8.95204 34.1183 9.02429 34.0885 9.09314C34.0588 9.16709 34.0307 9.24274 34.0086 9.31839C33.9857 9.39574 33.9661 9.47564 33.9508 9.55384C33.9338 9.63884 33.9228 9.72044 33.916 9.79779C33.9083 9.87344 33.9049 9.95758 33.9049 10.0511C33.9049 10.2389 33.9219 10.4174 33.9542 10.5866C33.9704 10.6741 33.9916 10.7557 34.0154 10.8339C34.0409 10.9164 34.0698 10.9946 34.1013 11.0677C34.137 11.1476 34.1735 11.2215 34.2118 11.2887C34.2526 11.3609 34.2985 11.4323 34.3478 11.5003C34.3988 11.5717 34.4532 11.638 34.5076 11.7001C34.5662 11.7655 34.6291 11.8284 34.692 11.8879C34.7592 11.9483 34.8263 12.0052 34.8952 12.0579C34.9589 12.1072 35.0303 12.1565 35.1094 12.2058C35.1791 12.25 35.2556 12.2925 35.3355 12.3316C35.4111 12.369 35.4902 12.403 35.5701 12.4328C35.6474 12.4617 35.7307 12.488 35.8183 12.5118C35.9041 12.5348 35.9908 12.5543 36.0767 12.5688C36.1625 12.5832 36.2543 12.5951 36.347 12.6028C36.4379 12.6104 36.5323 12.6147 36.6283 12.6147H38.8247L39.4673 12.5603L40.9387 12.4141L40.9548 12.6257L41.8881 12.5288C42.0598 12.5084 42.1796 12.4897 42.2493 12.4744L42.7321 12.3665V12.5543H43.719L43.7351 12.4115C43.7989 11.0813 43.7802 9.69409 43.7623 8.32389C43.753 7.6286 43.7428 6.93585 43.7428 6.39695C43.7428 6.3247 43.7394 6.25755 43.7326 6.19635C43.7266 6.136 43.7147 6.0697 43.6994 6C43.6867 5.9388 43.6688 5.8759 43.6467 5.81215L43.6459 5.8096ZM35.8013 6.92735L35.8081 6.92565C35.9075 6.9044 36.0095 6.88825 36.1124 6.87635C36.2093 6.8653 36.3147 6.8585 36.426 6.8551L37.4945 6.83725L38.7627 6.83385L41.005 6.8381L42.076 6.8466V6.7548C42.076 6.69105 42.07 6.6307 42.059 6.57375C42.0479 6.5134 42.0309 6.45475 42.0079 6.39865C41.9859 6.3417 41.9578 6.28815 41.9264 6.23885C41.8915 6.187 41.8541 6.13855 41.8133 6.0969C41.7742 6.0561 41.73 6.0187 41.6816 5.9847C41.6374 5.95325 41.5872 5.92435 41.5362 5.90225C41.4852 5.881 41.4334 5.864 41.3832 5.85381C41.3339 5.84445 41.2795 5.8385 41.22 5.8385H36.7252C36.6802 5.8385 36.6351 5.84275 36.5943 5.85125C36.5476 5.8606 36.5017 5.87335 36.4617 5.8895C36.415 5.9082 36.3691 5.932 36.3266 5.95835C36.2824 5.98555 36.2373 6.01955 36.1957 6.0578C36.1523 6.09435 36.1107 6.1377 36.0733 6.1836C36.0359 6.23035 36.0019 6.2788 35.9738 6.32725C35.9458 6.3774 35.9211 6.42925 35.9016 6.4811C35.8829 6.53465 35.8667 6.5882 35.8565 6.64005L35.803 6.9265L35.8013 6.92735ZM41.7912 10.658C41.8388 10.618 41.8787 10.5747 41.911 10.5305C41.9442 10.4837 41.9731 10.431 41.996 10.3741C42.0215 10.3103 42.0411 10.2389 42.0547 10.1607C42.0683 10.0808 42.076 9.99074 42.076 9.89044V9.11269L39.0976 9.11439L36.5493 9.13224C36.4609 9.13394 36.3801 9.13989 36.3096 9.15094C36.2356 9.16199 36.1668 9.18069 36.103 9.20364C36.0401 9.22574 35.984 9.25294 35.933 9.28269C35.8846 9.31159 35.8387 9.34644 35.797 9.38639C35.7562 9.42464 35.7205 9.46544 35.6925 9.50794C35.6636 9.55044 35.6372 9.59889 35.6168 9.65159C35.5939 9.70769 35.5769 9.76634 35.5658 9.82669C35.5556 9.88533 35.5497 9.95419 35.5497 10.0315L35.5522 10.1403L35.5658 10.2338L35.5862 10.318L35.6134 10.3953L35.6508 10.4684L35.6942 10.5373L35.7435 10.5993L35.8081 10.6665L35.8795 10.7243L35.9636 10.7804L36.0452 10.8246L36.1379 10.8628L36.2416 10.8968L36.3436 10.9206L36.4634 10.9385L36.5901 10.9478L36.9938 10.9597L37.4987 10.9657L38.8213 10.9674L39.3254 10.9555C39.571 10.9478 39.8379 10.9393 40.0938 10.9402C40.3411 10.941 40.5766 10.9521 40.7627 10.981C40.8758 10.9725 40.9846 10.9589 41.0874 10.941C41.2013 10.9215 41.3025 10.8968 41.3875 10.8696C41.4708 10.8424 41.549 10.8093 41.6195 10.7719C41.6841 10.7379 41.7419 10.6996 41.7904 10.658H41.7912ZM42.4414 10.9113C42.376 11.0031 42.2995 11.0847 42.2145 11.1561C42.1278 11.2283 42.0309 11.2938 41.9255 11.3499C41.8244 11.4034 41.7122 11.4502 41.5889 11.4901C41.464 11.5292 41.3339 11.5615 41.2013 11.5845C41.0687 11.6074 40.9234 11.6253 40.7678 11.6346L40.727 11.6372L40.6896 11.6304C40.5298 11.6023 40.3173 11.5921 40.0904 11.5913C39.8549 11.5904 39.5914 11.5989 39.35 11.6066H39.3415C39.1409 11.6134 38.9582 11.6202 38.8205 11.6202L37.4945 11.6176L36.9879 11.6117L36.5646 11.5998L36.3937 11.587C36.2654 11.5692 36.1923 11.5547 36.0656 11.525L35.9109 11.4757L35.7664 11.4145L35.6262 11.3397L35.4919 11.2496C35.3882 11.1654 35.3431 11.1263 35.2505 11.0303L35.1578 10.9113L35.0788 10.7855L35.0116 10.6486L34.9572 10.5016L34.9215 10.3511L34.8994 10.1922L34.8918 10.0281C34.8918 9.92103 34.902 9.81394 34.9215 9.70769C34.9411 9.59889 34.9708 9.49689 35.0074 9.40509C35.0448 9.31159 35.0932 9.22149 35.1502 9.13819C35.2088 9.05149 35.2751 8.97414 35.3465 8.90699C35.4205 8.83814 35.5038 8.77524 35.5956 8.71999C35.684 8.66644 35.7809 8.62054 35.8812 8.58569C35.9815 8.54999 36.0903 8.52279 36.2033 8.50409C36.3164 8.48539 36.432 8.47519 36.5467 8.47519L39.0933 8.45904L42.7296 8.45734V9.88789C42.7296 10.0196 42.7194 10.1471 42.699 10.2678C42.6777 10.3911 42.6446 10.5075 42.6021 10.6146C42.5596 10.72 42.506 10.8186 42.4406 10.9087L42.4414 10.9113ZM50.5419 4.17761V5.77815C50.1186 5.77815 49.2278 5.7059 48.8955 5.80705L48.8198 5.83765L48.6753 5.91245L48.5563 5.9932L48.4671 6.0748L48.3999 6.15725L48.3464 6.2499C48.3302 6.2822 48.3166 6.31705 48.3064 6.3519L48.2775 6.4828L48.2631 6.6222C48.2656 6.6987 48.2597 6.7939 48.2546 6.8585C48.2367 7.12625 48.2546 7.4195 48.2614 7.68895L48.2852 7.73739V13.2284H45.9655C45.9689 10.0375 45.9732 6.8466 45.9893 3.65571H47.9996L48.1806 3.59536C48.2452 3.57581 48.3175 3.55797 48.394 3.54267C48.4662 3.52737 48.5385 3.51631 48.6099 3.50866C48.6872 3.50101 48.7586 3.49676 48.8224 3.49676H50.5428V4.17761H50.5419ZM49.8866 5.12281V4.15211H48.8215L48.6753 4.15891L48.524 4.18271L48.3676 4.22266L48.2129 4.27621L47.6298 4.52526V4.31191H46.6387L46.6192 12.5739H47.6298V7.88444L47.6205 7.86659L47.6145 7.80709C47.6069 7.72464 47.6043 7.6269 47.6035 7.5317C47.5958 7.29965 47.5856 7.0472 47.6009 6.81685C47.6043 6.76075 47.6247 6.7242 47.6188 6.69445L47.6086 6.6528L47.6094 6.60945C47.612 6.53295 47.6188 6.45645 47.6298 6.3859C47.6409 6.3111 47.6579 6.238 47.6783 6.1683C47.6995 6.09945 47.725 6.03315 47.7539 5.9711C47.7837 5.9065 47.8185 5.84615 47.8576 5.78835C47.8976 5.73055 47.9418 5.6753 47.9919 5.6243C48.0395 5.57416 48.0939 5.52571 48.15 5.48066C48.2087 5.43391 48.2724 5.39056 48.3413 5.35061C48.4059 5.31236 48.4756 5.27496 48.5495 5.24266C48.7416 5.17126 48.813 5.13811 49.0213 5.12366H49.8866V5.12281ZM55.9266 3.59621H58.3041V5.91925H55.9266V13.2292H53.6053V5.91925H52.2666V3.59621H53.6121L53.6325 0.640778H55.9258V3.59621H55.9266ZM57.6487 4.25156H55.2713V1.29528H54.281L54.2615 4.25156H52.9219V5.26306H54.2606V12.573H55.2704V5.26306H57.6479V4.25156H57.6487ZM86.2698 7.3039L86.2809 7.8326L86.2859 8.74634H86.2656V9.22574H77.2972V10.0307C77.2972 10.1964 77.3295 10.3562 77.3882 10.5007C77.4485 10.6512 77.5378 10.7872 77.6483 10.9011C77.7571 11.0116 77.888 11.1025 78.0325 11.1637C78.1693 11.2224 78.3215 11.2547 78.4821 11.2547L80.9412 11.2759L83.4121 11.2564C83.5728 11.2564 83.7258 11.2232 83.8643 11.1646C84.0088 11.1034 84.1397 11.0124 84.2485 10.9019C84.3582 10.788 84.4483 10.6529 84.5086 10.5024C84.5673 10.3562 84.5996 10.1964 84.5996 10.0315V9.65754H86.2477C86.2451 9.93039 86.2409 10.1803 86.2256 10.4523C86.218 10.6095 86.1959 10.7617 86.1585 10.9096C86.1202 11.06 86.0667 11.2028 85.9995 11.3388C85.9332 11.4757 85.8525 11.6074 85.7598 11.7341C85.6655 11.8616 85.5601 11.9831 85.4445 12.0987C85.3272 12.216 85.2048 12.3206 85.079 12.4124C84.954 12.5025 84.8214 12.5815 84.682 12.6487C84.5469 12.7141 84.4041 12.766 84.2553 12.8051C84.1083 12.8433 83.9578 12.8688 83.804 12.8807C83.628 12.8952 83.4283 12.9079 83.2081 12.9181C83.0041 12.9275 82.7797 12.936 82.5366 12.9428L81.7895 12.9564C81.2404 12.9598 80.6972 12.9598 80.149 12.9564L79.3942 12.9428C79.1485 12.936 78.9207 12.9283 78.7159 12.9181C78.4923 12.9079 78.2926 12.8943 78.1158 12.8807C77.9619 12.8688 77.8106 12.8433 77.661 12.8051C77.514 12.7677 77.3695 12.715 77.2309 12.6504C77.0898 12.5841 76.9547 12.505 76.8263 12.4132C76.6971 12.3214 76.5722 12.216 76.4557 12.0996C76.3393 11.9831 76.2347 11.8599 76.1421 11.7298C76.0503 11.6015 75.9712 11.4655 75.9049 11.3252C75.8395 11.185 75.7877 11.0413 75.7502 10.8943C75.712 10.7438 75.6865 10.5917 75.6754 10.437C75.6508 9.97713 75.6474 9.50284 75.6389 9.04129L75.6338 8.51344L75.6381 7.13645L75.644 6.7633C75.6474 6.65875 75.6516 6.5848 75.6585 6.5457C75.6755 6.3808 75.7018 6.2227 75.7383 6.07055C75.7766 5.9133 75.8259 5.7603 75.8854 5.61495C75.9457 5.4662 76.018 5.3251 76.0987 5.19251C76.1812 5.05821 76.2747 4.92986 76.3775 4.81001C76.4948 4.67571 76.6181 4.55586 76.749 4.45301C76.8799 4.34846 77.0201 4.25836 77.1663 4.18441C77.3125 4.11046 77.4664 4.05096 77.6253 4.00846C77.7826 3.96681 77.9475 3.93876 78.1183 3.92771C78.3045 3.91411 78.5102 3.90051 78.7354 3.89031C78.9445 3.88011 79.1706 3.87161 79.412 3.86566L80.1456 3.85206C80.6896 3.84866 81.2285 3.84866 81.7733 3.85206L82.5264 3.86566C82.7721 3.87161 82.999 3.88011 83.2056 3.89031C83.4291 3.90136 83.6289 3.91411 83.8048 3.92771C83.9595 3.93961 84.1117 3.96596 84.2579 4.00506C84.4075 4.04586 84.552 4.09941 84.6914 4.16656C84.8265 4.23371 84.9617 4.31446 85.0926 4.41051C85.2235 4.50316 85.3476 4.61111 85.4657 4.72926C85.583 4.84656 85.6884 4.97151 85.7811 5.10156C85.8729 5.23076 85.9511 5.36676 86.0157 5.50786C86.0811 5.64981 86.1313 5.79515 86.1661 5.9422C86.2001 6.08585 86.2205 6.2363 86.2264 6.3927L86.2537 6.8262L86.2724 7.3073L86.2698 7.3039ZM77.2981 6.7548V7.5589H84.5996V6.7548C84.5996 6.5882 84.5673 6.42925 84.5086 6.28475C84.4483 6.13345 84.3582 5.9983 84.2485 5.8844C84.1397 5.77305 84.0088 5.68295 83.8643 5.6209C83.7275 5.5631 83.5753 5.5308 83.4147 5.5308L80.9361 5.50955C80.1184 5.5121 79.299 5.52995 78.4821 5.52995C78.3232 5.52995 78.1702 5.56311 78.0325 5.62176C77.8871 5.68295 77.7562 5.7739 77.6483 5.88525C77.5378 5.99915 77.4494 6.1343 77.3882 6.2839C77.3295 6.4301 77.2972 6.58905 77.2972 6.75565L77.2981 6.7548ZM97.0095 3.98381H98.6628L98.0788 5.13981C96.7673 7.73994 95.454 10.3409 94.2164 12.7719L94.1501 12.9011H92.5989L90.4084 8.54744L88.1058 3.98381H89.9545L93.3741 10.7464L96.7928 3.98381H97.0095ZM103.788 1.30207V3.41346H102.121V0.948476H103.788V1.30207ZM103.788 4.33911V12.902H102.121V3.98466H103.788V4.33911ZM117.506 7.30475L117.518 7.83344L117.522 8.74719H117.503V9.22659H108.535V10.0315C108.535 10.1973 108.567 10.3571 108.626 10.5016C108.686 10.652 108.774 10.788 108.886 10.9019C108.994 11.0124 109.124 11.1034 109.269 11.1646C109.406 11.2232 109.558 11.2555 109.719 11.2555L112.179 11.2768L114.649 11.2572C114.811 11.2572 114.963 11.2241 115.102 11.1654C115.245 11.1042 115.376 11.0133 115.484 10.9028C115.596 10.7889 115.685 10.6537 115.745 10.5033C115.803 10.3571 115.836 10.1973 115.836 10.0324V9.65839H117.484C117.481 9.93123 117.477 10.1811 117.461 10.4531C117.455 10.6104 117.432 10.7625 117.394 10.9104C117.356 11.0609 117.302 11.2037 117.236 11.3397C117.169 11.4765 117.088 11.6083 116.996 11.7349C116.901 11.8624 116.796 11.984 116.68 12.0996C116.563 12.2169 116.441 12.3214 116.315 12.4132C116.19 12.5033 116.058 12.5824 115.918 12.6495C115.783 12.715 115.64 12.7668 115.491 12.8059C115.344 12.8442 115.193 12.8697 115.039 12.8816C114.864 12.896 114.665 12.9088 114.444 12.919C114.24 12.9283 114.015 12.9368 113.772 12.9436L113.024 12.9572C112.476 12.9606 111.933 12.9606 111.384 12.9572L110.629 12.9436C110.383 12.9368 110.156 12.9292 109.951 12.919C109.728 12.9088 109.527 12.8952 109.352 12.8816C109.198 12.8697 109.045 12.8442 108.897 12.8059C108.75 12.7685 108.606 12.7158 108.467 12.6512C108.326 12.5849 108.19 12.5059 108.061 12.4141C107.931 12.3223 107.808 12.2169 107.691 12.1004C107.574 11.984 107.47 11.8607 107.377 11.7307C107.285 11.6023 107.207 11.4663 107.141 11.3261C107.075 11.1858 107.023 11.0422 106.986 10.8951C106.947 10.7447 106.922 10.5925 106.911 10.4378C106.886 9.97799 106.882 9.50369 106.874 9.04214L106.869 8.51429L106.873 7.1373L106.879 6.76415C106.882 6.6596 106.887 6.58565 106.893 6.54655C106.91 6.38165 106.937 6.22355 106.974 6.0714C107.012 5.91415 107.062 5.76115 107.121 5.6158C107.182 5.46706 107.254 5.32596 107.334 5.19336C107.417 5.05906 107.51 4.93071 107.614 4.81086C107.731 4.67656 107.854 4.55671 107.985 4.45386C108.116 4.34931 108.256 4.25921 108.401 4.18526C108.548 4.11131 108.702 4.05181 108.861 4.00931C109.017 3.96766 109.182 3.93961 109.353 3.92856C109.539 3.91496 109.746 3.90136 109.97 3.89116C110.179 3.88096 110.405 3.87246 110.647 3.86651L111.38 3.85291C111.925 3.84951 112.464 3.84951 113.008 3.85291L113.763 3.86651C114.008 3.87246 114.235 3.88096 114.441 3.89116C114.665 3.90221 114.865 3.91496 115.04 3.92856C115.196 3.94046 115.346 3.96681 115.494 4.00591C115.642 4.04671 115.788 4.10026 115.926 4.16741C116.062 4.23456 116.197 4.31531 116.328 4.41136C116.458 4.50401 116.583 4.61196 116.701 4.73011C116.818 4.84741 116.923 4.97236 117.015 5.10241C117.107 5.23161 117.186 5.3676 117.25 5.5087C117.315 5.65065 117.366 5.796 117.4 5.94305C117.434 6.0867 117.455 6.23715 117.461 6.39355L117.488 6.82705L117.506 7.30815V7.30475ZM108.535 6.75565V7.55974H115.836V6.75565C115.836 6.58905 115.803 6.4301 115.745 6.2856C115.685 6.1343 115.596 5.99915 115.484 5.88525C115.376 5.7739 115.245 5.6838 115.102 5.62176C114.965 5.56396 114.813 5.53166 114.651 5.53166L112.173 5.51041C111.356 5.51296 110.536 5.5308 109.719 5.5308C109.56 5.5308 109.407 5.56396 109.269 5.62261C109.124 5.68381 108.994 5.77475 108.886 5.8861C108.774 6 108.686 6.13515 108.626 6.28475C108.566 6.43095 108.535 6.5899 108.535 6.7565V6.75565ZM132.88 3.98466H134.397L132.61 8.52959L130.884 12.902H129.365L126.849 6.55335L124.33 12.902H122.833C121.658 9.92783 120.48 6.9554 119.297 3.98466H121.075L123.591 10.329L126.089 3.98466H127.607L130.125 10.3333L132.641 3.98466H132.88Z" fill="white"/>
</svg>
