<svg width="20" height="20" viewBox="0 0 20 20" fill="none" xmlns="http://www.w3.org/2000/svg">
<path fill-rule="evenodd" clip-rule="evenodd" d="M2.67709 2.11098C3.05867 1.95515 12.8097 2.03637 14.6005 2.03637C16.1023 2.03637 17.6192 1.75682 17.9261 2.69748C18.0754 3.1527 17.9828 12.7 17.9828 14.537C17.9828 15.3671 18.2888 17.5327 17.3859 17.8935C17.0204 18.039 5.67117 17.9596 3.41852 17.9653C2.85182 17.9662 2.31629 17.953 2.09433 17.3165C1.95549 16.916 2.04332 5.69986 2.0386 3.43792C2.03671 2.82592 2.03105 2.37543 2.67709 2.11098ZM8.98544 8.29801C7.26644 9.44834 8.01638 11.9587 9.98096 11.9785C12.1014 12.0002 12.7162 9.16973 11.0209 8.32068L11.0067 6.01908L13.9866 6.00585C14.0187 7.97785 13.9904 9.97156 13.9904 11.9454C13.9894 14.4085 13.843 13.9911 9.98096 13.9911C6.27094 13.9911 6.01591 14.401 6.01591 12.0257C6.01591 10.0622 5.94697 7.97501 6.02347 6.02758C6.457 5.98602 7.19655 6.08424 7.5413 5.86608C7.96821 5.59691 8.12122 5.06897 7.9276 4.6043C7.57436 3.75903 4.02679 3.23959 4.03151 6.35341V13.2403C4.03151 14.2962 4.02112 15.1537 5.0648 15.7279C5.94319 16.2115 10.4098 15.9839 11.682 15.9839C14.0055 15.9839 15.9946 16.4391 15.9899 13.4027C15.9861 11.1077 15.9823 8.81084 15.9899 6.51585C15.9993 3.53142 13.8279 4.01497 11.6008 4.01403C8.17695 4.01403 9.23479 6.47713 8.98544 8.29801ZM1.58146 0.106881C-0.15265 0.520546 0.035307 2.10909 0.035307 3.5182C0.035307 5.39008 -0.0752055 17.6536 0.0948056 18.4196C0.473553 20.1309 2.14722 19.9656 3.49976 19.9637C5.40671 19.9609 17.657 20.0761 18.439 19.9099C20.1854 19.5397 19.9672 17.8199 19.9672 16.4825C19.9672 14.6805 20.0721 2.17898 19.9068 1.51787C19.4855 -0.168895 17.8109 0.0360483 16.4631 0.0360483C14.5798 0.0360483 2.37013 -0.0810623 1.58146 0.106881Z" fill="white"/>
</svg>
